<?xml version="1.0"?>
<svg width="480" height="480" xmlns="http://www.w3.org/2000/svg" xmlns:svg="http://www.w3.org/2000/svg">
 <!-- Created with SVG-edit - https://github.com/SVG-Edit/svgedit-->
 <g class="layer">
  <title>Layer 1</title>
  <g id="svg_6"/>
  <g id="svg_1">
   <circle cx="239.499987" cy="238.833335" fill="#ff3f96" id="svg_2" r="238.276512" stroke="#000000" stroke-width="0"/>
   <g id="svg_7">
    <path d="m368.731273,136.122443l-77.617921,0l0,51.745276l-103.490565,0l0,-51.745276l-77.617921,0c-14.283855,0 -25.872644,11.588789 -25.872644,25.872644l0,189.732696c0,14.283855 11.588789,25.872644 25.872644,25.872644l258.726406,0c14.283855,0 25.872644,-11.588789 25.872644,-25.872644l0,-189.732696c0,-14.283855 -11.588789,-25.872644 -25.872644,-25.872644zm-129.363209,86.242131c19.027169,0 34.496855,15.469686 34.496855,34.496855s-15.469686,34.496855 -34.496855,34.496855s-34.496855,-15.469686 -34.496855,-34.496855s15.469686,-34.496855 34.496855,-34.496855zm50.289944,120.738986l-100.579889,0c-5.605742,0 -10.133445,-5.390132 -8.408613,-10.672458c4.473813,-13.798744 17.464032,-23.824385 32.825913,-23.824385l4.41991,0c6.629866,2.748968 13.852647,4.312105 21.452734,4.312105s14.876771,-1.563137 21.452734,-4.312105l4.41991,0c15.307979,0 28.298198,9.97175 32.825913,23.824385c1.724845,5.282327 -2.802871,10.672458 -8.408613,10.672458zm-15.79309,-224.229551c0,-9.540542 -7.707892,-17.248422 -17.248422,-17.248422l-34.496855,0c-9.540542,0 -17.248422,7.707892 -17.248422,17.248422l0,51.745276l68.99371,0l0,-51.745276l-0.000012,0z" fill="#ffffff" id="svg_8" stroke="#000000" stroke-width="0"/>
   </g>
  </g>
 </g>
</svg>