<?xml version="1.0" encoding="utf-8"?>
<!-- Generator: Adobe Illustrator 23.0.6, SVG Export Plug-In . SVG Version: 6.00 Build 0)  -->
<svg version="1.1" id="Layer_1" xmlns="http://www.w3.org/2000/svg" xmlns:xlink="http://www.w3.org/1999/xlink" x="0px" y="0px"
	 viewBox="0 0 78 78" style="enable-background:new 0 0 78 78;" xml:space="preserve">
<style type="text/css">
	.st0{fill-rule:evenodd;clip-rule:evenodd;fill:#FD4496;}
	.st1{fill:#FFFFFF;}
</style>
<title>Contractor</title>
<desc>Created with Sketch.</desc>
<g id="Contractor">
	<g id="Group">
		<circle id="Oval" class="st0" cx="39" cy="39" r="39"/>
		<path class="st1" d="M59.6,21.6H47.2v8.3H30.7v-8.3H18.3c-2.3,0-4.1,1.8-4.1,4.1V56c0,2.3,1.8,4.1,4.1,4.1h41.3
			c2.3,0,4.1-1.8,4.1-4.1V25.7C63.7,23.4,61.9,21.6,59.6,21.6z M39,35.3c3,0,5.5,2.5,5.5,5.5c0,3-2.5,5.5-5.5,5.5
			c-3,0-5.5-2.5-5.5-5.5C33.5,37.8,35.9,35.3,39,35.3z M47,54.6h-16c-0.9,0-1.6-0.9-1.3-1.7c0.7-2.2,2.8-3.8,5.2-3.8h0.7
			c1.1,0.4,2.2,0.7,3.4,0.7s2.4-0.2,3.4-0.7h0.7c2.4,0,4.5,1.6,5.2,3.8C48.6,53.7,47.9,54.6,47,54.6z M44.5,18.8
			c0-1.5-1.2-2.8-2.8-2.8h-5.5c-1.5,0-2.8,1.2-2.8,2.8v8.3h11V18.8z"/>
	</g>
</g>
</svg>
