<?xml version="1.0" encoding="UTF-8"?>
<svg viewBox="0 0 46 46" id="students" width="100%" height="100%" version="1.1" xmlns="http://www.w3.org/2000/svg" xmlns:xlink="http://www.w3.org/1999/xlink">
    <title>students</title>
    <g id="students-Symbols" stroke="none" stroke-width="1" fill="none" fill-rule="evenodd">
        <g id="students-students-and-recent-graduates">
            <g id="students-Group-2" transform="translate(1.000000, 1.000000)">
                <g id="students-Group" fill="#FDB81E">
                    <path d="M44,22 C44,34.1506076 34.1502514,44 21.9992043,44 C9.84974862,44 0,34.1506076 0,22 C0,9.84939236 9.84974862,0 21.9992043,0 C34.1502514,0 44,9.84939236 44,22" id="students-Fill-1-Copy"></path>
                </g>
                <g id="students-book" transform="translate(10.000000, 8.000000)" fill="#FFFFFF" fill-rule="nonzero">
                    <path d="M24.5,19.6875 L24.5,1.3125 C24.5,0.58515625 23.9148438,0 23.1875,0 L5.25,0 C2.3515625,0 0,2.3515625 0,5.25 L0,22.75 C0,25.6484375 2.3515625,28 5.25,28 L23.1875,28 C23.9148438,28 24.5,27.4148437 24.5,26.6875 L24.5,25.8125 C24.5,25.4023438 24.3085938,25.0304688 24.0132813,24.7898437 C23.7835938,23.9476563 23.7835938,21.546875 24.0132813,20.7046875 C24.3085938,20.4695312 24.5,20.0976562 24.5,19.6875 Z M7,7.328125 C7,7.14765625 7.14765625,7 7.328125,7 L18.921875,7 C19.1023437,7 19.25,7.14765625 19.25,7.328125 L19.25,8.421875 C19.25,8.60234375 19.1023437,8.75 18.921875,8.75 L7.328125,8.75 C7.14765625,8.75 7,8.60234375 7,8.421875 L7,7.328125 Z M7,10.828125 C7,10.6476562 7.14765625,10.5 7.328125,10.5 L18.921875,10.5 C19.1023437,10.5 19.25,10.6476562 19.25,10.828125 L19.25,11.921875 C19.25,12.1023438 19.1023437,12.25 18.921875,12.25 L7.328125,12.25 C7.14765625,12.25 7,12.1023438 7,11.921875 L7,10.828125 Z M20.8578125,24.5 L5.25,24.5 C4.28203125,24.5 3.5,23.7179688 3.5,22.75 C3.5,21.7875 4.2875,21 5.25,21 L20.8578125,21 C20.7539062,21.9351563 20.7539062,23.5648438 20.8578125,24.5 Z" id="students-Shape"></path>
                </g>
            </g>
        </g>
    </g>
</svg>