<?xml version="1.0" encoding="UTF-8"?>
<svg width="512px" height="512px" viewBox="0 0 512 512" version="1.1" xmlns="http://www.w3.org/2000/svg" xmlns:xlink="http://www.w3.org/1999/xlink">
<rect id="backgroundrect" width="100%" height="100%" x="0" y="0" fill="none" stroke="none"/>
 <g style="">
  <title>circle</title>
  <circle fill="#d6d7d9" cx="256" cy="256" r="253.56796264648438" id="svg_1"/>
 </g>
 <g style="" class="currentLayer">
  <title>cogs</title>
  <path fill="#02bfe7" d="M347.98931849559455,220.59605914196 l-3.8363984538830076,6.690304620795976 c-1.4035604099571992,2.4796233909243828 -4.397822617865887,3.5089010248929937 -7.064587396784562,2.5264087379229565 c-5.520670945831646,-2.058555267937224 -10.57348842167756,-5.006032128847337 -15.018096386542016,-8.702074541734628 c-2.1521259619343693,-1.7778431859457835 -2.7135501259172488,-4.912461434850194 -1.309989715960051,-7.345299478776002 l3.8363984538830076,-6.690304620795976 c-3.2281889429015544,-3.7428277598858615 -5.754597680824511,-8.093865030753173 -7.438870172773148,-12.819185077609074 h-7.719582254764586 c-2.8071208199143953,0 -5.239958863840204,-2.01176992093865 -5.707812333825936,-4.818890740853047 c-0.9357069399714654,-5.6142416398287915 -0.9824922869700387,-11.509195361649022 0,-17.357363736470678 c0.46785346998573335,-2.8071208199143953 2.900691513911542,-4.86567608785162 5.707812333825936,-4.86567608785162 h7.719582254764586 c1.6842724919486374,-4.7253200468559005 4.210681229871593,-9.076357317723211 7.438870172773148,-12.819185077609074 l-3.8363984538830076,-6.690304620795976 c-1.4035604099571992,-2.4328380439258095 -0.8889215929728917,-5.567456292830218 1.309989715960051,-7.345299478776002 c4.444607964864459,-3.6960424128872877 9.544210787708941,-6.643519273797404 15.018096386542016,-8.702074541734628 c2.666764778918676,-0.9824922869700387 5.661026986827365,0.04678534699857391 7.064587396784562,2.5264087379229565 l3.8363984538830076,6.690304620795976 c4.912461434850194,-0.8889215929728917 9.918493563697531,-0.8889215929728917 14.83095499854772,0 L366.6566719480253,134.18352323559517 c1.4035604099571992,-2.4796233909243828 4.397822617865887,-3.5089010248929937 7.064587396784562,-2.5264087379229565 c5.520670945831646,2.058555267937224 10.57348842167756,5.006032128847337 15.018096386542016,8.702074541734628 c2.1521259619343693,1.7778431859457835 2.7135501259172488,4.912461434850194 1.309989715960051,7.345299478776002 l-3.8363984538830076,6.690304620795976 c3.2281889429015544,3.7428277598858615 5.754597680824511,8.093865030753173 7.438870172773148,12.819185077609074 h7.719582254764586 c2.8071208199143953,0 5.239958863840204,2.01176992093865 5.707812333825936,4.818890740853047 c0.9357069399714654,5.6142416398287915 0.9824922869700387,11.509195361649022 0,17.357363736470678 c-0.46785346998573335,2.8071208199143953 -2.900691513911542,4.86567608785162 -5.707812333825936,4.86567608785162 h-7.719582254764586 c-1.6842724919486374,4.7253200468559005 -4.210681229871593,9.076357317723211 -7.438870172773148,12.819185077609074 l3.8363984538830076,6.690304620795976 c1.4035604099571992,2.4328380439258095 0.8889215929728917,5.567456292830218 -1.309989715960051,7.345299478776002 c-4.444607964864459,3.6960424128872877 -9.544210787708941,6.643519273797404 -15.018096386542016,8.702074541734628 c-2.666764778918676,0.9824922869700387 -5.661026986827365,-0.04678534699857391 -7.064587396784562,-2.5264087379229565 l-3.8363984538830076,-6.690304620795976 c-4.86567608785162,0.8889215929728917 -9.918493563697531,0.8889215929728917 -14.83095499854772,0 zm-4.912461434850194,-27.50978403516108 c18.012358594450703,13.848462711577685 38.551125926824376,-6.690304620795976 24.70266321524668,-24.70266321524668 c-18.012358594450703,-13.895248058576255 -38.551125926824376,6.690304620795976 -24.70266321524668,24.70266321524668 zM289.1333519713894,265.08892413760316 l15.76666193851919,7.859938295760307 c4.7253200468559005,2.7135501259172488 6.7838753147931214,8.468147806741761 4.912461434850194,13.614535976584818 c-4.16389588287302,11.32205397365473 -12.35133160762334,21.708401007337994 -19.93055782139221,30.784758325061205 c-3.4621156778944213,4.16389588287302 -9.450640093711797,5.1931735168416315 -14.175960140567698,2.4796233909243828 l-13.614535976584818,-7.859938295760307 c-7.485655519771721,6.409592538804537 -16.187730061506347,11.509195361649022 -25.685155502216716,14.83095499854772 v15.719876591520613 c0,5.427100251834498 -3.8831838008815804,10.105634951691826 -9.21671335871893,11.041341891663292 c-11.509195361649022,1.9649845739400766 -23.579814887280925,2.058555267937224 -35.51007837191711,0 c-5.380314904835924,-0.9357069399714654 -9.35706939971465,-5.567456292830218 -9.35706939971465,-11.041341891663292 V326.7987968287213 c-9.497425440710373,-3.3685449838972747 -18.199499982444998,-8.421362459743186 -25.685155502216716,-14.83095499854772 L143.02271329484512,319.7809947789353 c-4.678534699857325,2.7135501259172488 -10.713844462673274,1.6842724919486374 -14.175960140567698,-2.4796233909243828 c-7.579226213768868,-9.076357317723211 -15.579520550524892,-19.462704351406476 -19.74341643339792,-30.737972978062633 c-1.8714138799429305,-5.099602822844485 0.18714138799429364,-10.854200503668997 4.912461434850194,-13.614535976584818 l15.579520550524892,-7.859938295760307 c-1.8246285329443577,-9.77813752270181 -1.8246285329443577,-19.836987127395062 0,-29.66190999709544 L114.0157981557297,227.52029049774882 c-4.7253200468559005,-2.7135501259172488 -6.830660661791696,-8.468147806741761 -4.912461434850194,-13.567750629586243 c4.16389588287302,-11.32205397365473 12.164190219629045,-21.708401007337994 19.74341643339792,-30.784758325061205 c3.4621156778944213,-4.16389588287302 9.450640093711797,-5.1931735168416315 14.175960140567698,-2.4796233909243828 l13.614535976584818,7.859938295760307 c7.485655519771721,-6.409592538804537 16.187730061506347,-11.509195361649022 25.685155502216716,-14.83095499854772 V157.95047951087042 c0,-5.380314904835924 3.8363984538830076,-10.05884960469325 9.169928011720362,-10.994556544664716 c11.509195361649022,-1.9649845739400766 23.626600234279493,-2.058555267937224 35.55686371891567,-0.04678534699857391 c5.380314904835924,0.9357069399714654 9.35706939971465,5.567456292830218 9.35706939971465,11.041341891663292 v15.719876591520613 c9.497425440710373,3.3685449838972747 18.199499982444998,8.421362459743186 25.685155502216716,14.83095499854772 l13.614535976584818,-7.859938295760307 c4.678534699857325,-2.7135501259172488 10.713844462673274,-1.6842724919486374 14.175960140567698,2.4796233909243828 c7.579226213768868,9.076357317723211 15.532735203526322,19.462704351406476 19.69663108639934,30.784758325061205 c1.8714138799429305,5.099602822844485 0.04678534699857391,10.854200503668997 -4.678534699857325,13.614535976584818 l-15.76666193851919,7.859938295760307 c1.8246285329443577,9.824922869700384 1.8246285329443577,19.883772474393634 0,29.708695344094018 zm-55.01956807032216,9.871708216698961 c27.69692542315537,-36.024717188901406 -13.427394588590523,-77.1490372006473 -49.45211177749193,-49.45211177749193 c-27.69692542315537,36.024717188901406 13.427394588590523,77.1490372006473 49.45211177749193,49.45211177749193 zm113.87553459452728,85.47682896639333 l-3.8363984538830076,6.690304620795976 c-1.4035604099571992,2.4796233909243828 -4.397822617865887,3.5089010248929937 -7.064587396784562,2.5264087379229565 c-5.520670945831646,-2.058555267937224 -10.57348842167756,-5.006032128847337 -15.018096386542016,-8.702074541734628 c-2.1521259619343693,-1.7778431859457835 -2.7135501259172488,-4.912461434850194 -1.309989715960051,-7.345299478776002 l3.8363984538830076,-6.690304620795976 c-3.2281889429015544,-3.7428277598858615 -5.754597680824511,-8.093865030753173 -7.438870172773148,-12.819185077609074 h-7.719582254764586 c-2.8071208199143953,0 -5.239958863840204,-2.01176992093865 -5.707812333825936,-4.818890740853047 c-0.9357069399714654,-5.6142416398287915 -0.9824922869700387,-11.509195361649022 0,-17.357363736470678 c0.46785346998573335,-2.8071208199143953 2.900691513911542,-4.86567608785162 5.707812333825936,-4.86567608785162 h7.719582254764586 c1.6842724919486374,-4.7253200468559005 4.210681229871593,-9.076357317723211 7.438870172773148,-12.819185077609074 l-3.8363984538830076,-6.690304620795976 c-1.4035604099571992,-2.4328380439258095 -0.8889215929728917,-5.567456292830218 1.309989715960051,-7.345299478776002 c4.444607964864459,-3.6960424128872877 9.544210787708941,-6.643519273797404 15.018096386542016,-8.702074541734628 c2.666764778918676,-0.9824922869700387 5.661026986827365,0.04678534699857391 7.064587396784562,2.5264087379229565 l3.8363984538830076,6.690304620795976 c4.912461434850194,-0.8889215929728917 9.918493563697531,-0.8889215929728917 14.83095499854772,0 l3.8363984538830076,-6.690304620795976 c1.4035604099571992,-2.4796233909243828 4.397822617865887,-3.5089010248929937 7.064587396784562,-2.5264087379229565 c5.520670945831646,2.058555267937224 10.57348842167756,5.006032128847337 15.018096386542016,8.702074541734628 c2.1521259619343693,1.7778431859457835 2.7135501259172488,4.912461434850194 1.309989715960051,7.345299478776002 l-3.8363984538830076,6.690304620795976 c3.2281889429015544,3.7428277598858615 5.754597680824511,8.093865030753173 7.438870172773148,12.819185077609074 h7.719582254764586 c2.8071208199143953,0 5.239958863840204,2.01176992093865 5.707812333825936,4.818890740853047 c0.9357069399714654,5.6142416398287915 0.9824922869700387,11.509195361649022 0,17.357363736470678 c-0.46785346998573335,2.8071208199143953 -2.900691513911542,4.86567608785162 -5.707812333825936,4.86567608785162 h-7.719582254764586 c-1.6842724919486374,4.7253200468559005 -4.210681229871593,9.076357317723211 -7.438870172773148,12.819185077609074 l3.8363984538830076,6.690304620795976 c1.4035604099571992,2.4328380439258095 0.8889215929728917,5.567456292830218 -1.309989715960051,7.345299478776002 c-4.444607964864459,3.6960424128872877 -9.544210787708941,6.643519273797404 -15.018096386542016,8.702074541734628 c-2.666764778918676,0.9824922869700387 -5.661026986827365,-0.04678534699857391 -7.064587396784562,-2.5264087379229565 l-3.8363984538830076,-6.690304620795976 c-4.86567608785162,0.8889215929728917 -9.918493563697531,0.8889215929728917 -14.83095499854772,0 zM343.0768570607443,332.88089193853585 c18.012358594450703,13.848462711577685 38.551125926824376,-6.690304620795976 24.70266321524668,-24.70266321524668 c-18.012358594450703,-13.848462711577685 -38.551125926824376,6.690304620795976 -24.70266321524668,24.70266321524668 z" id="svg_2" class="" fill-opacity="1"/>
 </g>
</svg>