<?xml version="1.0" encoding="UTF-8"?>
<svg width="512px" height="512px" viewBox="0 0 512 512" version="1.1" xmlns="http://www.w3.org/2000/svg" xmlns:xlink="http://www.w3.org/1999/xlink">
 <g>
  <title>circle</title>
  <circle id="svg_1" r="253.56797" cy="256" cx="256" fill="#d6d7d9"/>
 </g>
 <g>
  <title>comments</title>
  <path id="svg_2" d="m325.72222,222.27778c0,-47.11597 -49.62101,-85.27778 -110.86111,-85.27778s-110.86111,38.16181 -110.86111,85.27778c0,18.28142 7.5151,35.12378 20.25347,49.03472c-7.14201,16.09618 -18.92101,28.88785 -19.0809,29.04774c-1.17257,1.22587 -1.49236,3.03802 -0.79948,4.63698s2.18524,2.55833 3.8908,2.55833c19.50729,0 35.65677,-6.55573 47.27587,-13.32465c17.16215,8.36788 37.46892,13.32465 59.32135,13.32465c61.2401,0 110.86111,-38.16181 110.86111,-85.27778l0,0.00001zm65.0243,117.25694c12.73837,-13.85764 20.25347,-30.7533 20.25347,-49.03472c0,-35.65677 -28.51476,-66.19687 -68.9151,-78.93524c0.47969,3.51771 0.69288,7.08872 0.69288,10.71302c0,56.44323 -57.4026,102.33333 -127.91667,102.33333c-5.75625,0 -11.3526,-0.42639 -16.89566,-1.01267c16.78906,30.6467 56.23003,52.17934 102.17344,52.17934c21.85243,0 42.1592,-4.90347 59.32135,-13.32465c11.6191,6.76892 27.76858,13.32465 47.27587,13.32465c1.70556,0 3.25122,-1.01267 3.8908,-2.55833c0.69288,-1.54566 0.37309,-3.35781 -0.79948,-4.63698c-0.1599,-0.1599 -11.93889,-12.89826 -19.0809,-29.04774l0,-0.00001z" fill="#112e51"/>
 </g>
</svg>