<?xml version="1.0" encoding="UTF-8"?>
<svg width="512px" height="512px" viewBox="0 0 512 512" version="1.1" xmlns="http://www.w3.org/2000/svg" xmlns:xlink="http://www.w3.org/1999/xlink">
 <g>
  <title>circle</title>
  <circle fill="#d6d7d9" cx="256" cy="256" r="253.56797" id="svg_1"/>
 </g>
 <g>
  <title>search</title>
  <path fill="#2e8540" d="m389.30475,354.57507l-52.37798,-52.37798c-2.3641,-2.3641 -5.56878,-3.67749 -8.93105,-3.67749l-8.5633,0c14.49982,-18.54507 23.11566,-41.87087 23.11566,-67.24556c0,-60.3634 -48.91064,-109.27403 -109.27403,-109.27403s-109.27403,48.91064 -109.27403,109.27403s48.91064,109.27403 109.27403,109.27403c25.37469,0 48.7005,-8.61584 67.24556,-23.11566l0,8.5633c0,3.36228 1.31339,6.56695 3.67749,8.93105l52.37798,52.37798c4.93835,4.93835 12.92376,4.93835 17.80957,0l14.86757,-14.86757c4.93835,-4.93835 4.93835,-12.92376 0.05253,-17.8621l-0.00002,0.00002zm-156.03071,-56.05548c-37.14266,0 -67.24556,-30.05036 -67.24556,-67.24556c0,-37.14266 30.05036,-67.24556 67.24556,-67.24556c37.14266,0 67.24556,30.05036 67.24556,67.24556c0,37.14266 -30.05036,67.24556 -67.24556,67.24556z" id="svg_2"/>
 </g>
</svg>