<svg width="216" height="216" xmlns="http://www.w3.org/2000/svg" xmlns:svg="http://www.w3.org/2000/svg">
 <g>
  <title>Layer 1</title>
  <path id="svg_1" d="m211.07776,183.82928l-90.39338,-165.72866c-1.3349,-2.43287 -3.17834,-4.35577 -5.53609,-5.76724c-2.35197,-1.41292 -4.90331,-2.11937 -7.64968,-2.11937c-2.74637,0 -5.29771,0.7079 -7.65113,2.11937s-4.1983,3.33437 -5.53175,5.76724l-90.39627,165.72866c-2.74637,4.94521 -2.66836,9.88897 0.23549,14.83273c1.3349,2.27396 3.15956,4.07983 5.47397,5.41184c2.31585,1.3349 4.80651,2.0038 7.47487,2.0038l180.7911,0c2.67125,0 5.16047,-0.6689 7.47632,-2.0038c2.31585,-1.33201 4.13762,-3.13789 5.47397,-5.41184c2.90385,-4.94521 2.98186,-9.88752 0.2326,-14.83273zm-88.50949,-11.77141c0,1.09797 -0.37418,2.01969 -1.11675,2.76515c-0.74546,0.74546 -1.62818,1.11675 -2.64958,1.11675l-22.59943,0c-1.01996,0 -1.90267,-0.37129 -2.64813,-1.11675c-0.74546,-0.74691 -1.1182,-1.66718 -1.1182,-2.76515l0,-22.36394c0,-1.09797 0.37273,-2.01824 1.1182,-2.76515c0.74546,-0.74546 1.62673,-1.11675 2.64813,-1.11675l22.59798,0c1.0214,0 1.90411,0.37129 2.64958,1.11675c0.74402,0.74691 1.11675,1.66718 1.11675,2.76515l0,22.36394l0.00144,0zm-0.23404,-44.01998c-0.0809,0.78447 -0.49264,1.4317 -1.23666,1.94168c-0.74691,0.51142 -1.66718,0.76425 -2.7666,0.76425l-21.77595,0c-1.09797,0 -2.03992,-0.25427 -2.82439,-0.76425c-0.78592,-0.51142 -1.17743,-1.1572 -1.17743,-1.94457l-2.00091,-53.78759c0,-1.09942 0.39296,-1.92289 1.17743,-2.47188c1.01996,-0.86249 1.9619,-1.29445 2.82583,-1.29445l25.89479,0c0.86393,0 1.80587,0.43052 2.82583,1.29445c0.78447,0.54899 1.17454,1.29445 1.17454,2.23639l-2.11648,54.02597z" fill="#fdb81e"/>
 </g>
</svg>